<svg width="151" height="26" viewBox="0 0 151 26" fill="none" xmlns="http://www.w3.org/2000/svg">
<g clip-path="url(#clip0_4160_22610)">
<path d="M53.8031 18.65C53.0687 19.1694 52.1374 19.4201 51.0091 19.4201C49.8808 19.4201 49.039 19.1873 48.1972 18.7216C47.3554 18.256 46.6928 17.5754 46.1913 16.6978C45.8331 16.0351 45.6002 15.2829 45.5107 14.4232H59.785C59.785 12.1486 59.3731 10.1964 58.5672 8.5666C57.7612 6.93678 56.6866 5.68308 55.3433 4.80548C54.0001 3.92789 52.4777 3.49805 50.7942 3.49805C49.1106 3.49805 47.2659 3.92789 45.8152 4.76966C44.3644 5.61144 43.2182 6.77559 42.3943 8.26213C41.5705 9.74867 41.1406 11.468 41.1406 13.4023C41.1406 15.3366 41.5526 17.056 42.3764 18.5425C43.2003 20.0291 44.3107 21.1932 45.7435 22.035C47.1584 22.8768 48.8061 23.3066 50.633 23.3066C52.4598 23.3066 53.3553 23.1096 54.4657 22.6977C55.5941 22.3036 56.5612 21.7126 57.3851 20.9604C58.2089 20.2082 58.8716 19.3306 59.4089 18.3097L55.5224 16.6441C55.1105 17.45 54.5553 18.1127 53.821 18.6321L53.8031 18.65ZM46.0659 10.0711C46.4599 9.15764 47.0689 8.45914 47.839 7.97557C48.627 7.492 49.5584 7.25917 50.633 7.25917C51.7076 7.25917 52.5494 7.50991 53.2658 8.0293C53.9822 8.54869 54.5374 9.33674 54.9314 10.3934C55.003 10.6084 55.0747 10.8412 55.1463 11.074H45.7435C45.8331 10.7158 45.9405 10.3755 46.0838 10.0711H46.0659Z" fill="white"/>
<path d="M76.6917 5.61111C75.438 4.21412 73.6649 3.51562 71.3724 3.51562C69.0799 3.51562 68.5963 3.89174 67.5217 4.62605C66.7874 5.12753 66.1784 5.79021 65.677 6.59616L65.4799 3.96338H61.5039V22.8585H65.7307V12.9901C65.7307 11.1991 66.1247 9.81998 66.8948 8.87074C67.6829 7.92151 68.7754 7.45585 70.1903 7.47376C71.0142 7.47376 71.7485 7.63495 72.3574 7.95733C72.9664 8.27971 73.4499 8.85283 73.7902 9.6767C74.1305 10.5006 74.2917 11.6647 74.2917 13.1692V22.8406H78.5185V12.0229C78.5185 9.12148 77.8916 6.97227 76.6558 5.57529L76.6917 5.61111Z" fill="white"/>
<path d="M90.1777 23.3242C88.2434 23.3242 86.5241 22.8943 85.0375 22.0526C83.551 21.2108 82.3868 20.0466 81.5451 18.5601C80.7033 17.0736 80.2734 15.3542 80.2734 13.4199C80.2734 11.4856 80.7033 9.76625 81.5451 8.27971C82.3868 6.79317 83.551 5.62902 85.0196 4.78724C86.4882 3.94547 88.1897 3.51562 90.1061 3.51562C92.0225 3.51562 93.6523 3.96338 95.1746 4.85888C96.6791 5.75439 97.8074 7.026 98.5417 8.69164L94.6015 10.1961C94.1896 9.37223 93.5806 8.69164 92.7568 8.19016C91.9329 7.68868 90.9837 7.43794 89.927 7.43794C88.8703 7.43794 87.9748 7.68868 87.1688 8.20807C86.3629 8.72746 85.736 9.42596 85.2704 10.3215C84.8226 11.217 84.5898 12.2378 84.5898 13.402C84.5898 14.5662 84.8226 15.587 85.2883 16.4825C85.7539 17.378 86.3987 18.0765 87.2226 18.5959C88.0464 19.1153 88.9598 19.3661 89.9986 19.3661C91.0374 19.3661 92.0045 19.0974 92.8284 18.5601C93.6523 18.0228 94.2791 17.2885 94.6732 16.3572L98.6134 17.8616C97.8791 19.581 96.7686 20.9063 95.2642 21.8735C93.7597 22.8227 92.0762 23.3063 90.1777 23.3063V23.3242Z" fill="white"/>
<path d="M109.074 23.3242C107.157 23.3242 105.474 22.8943 104.005 22.0526C102.536 21.2108 101.39 20.0466 100.566 18.5601C99.7423 17.0736 99.3125 15.3542 99.3125 13.4199C99.3125 11.4856 99.7244 9.76625 100.548 8.27971C101.372 6.79317 102.5 5.62902 103.969 4.78724C105.438 3.94547 107.085 3.51562 108.966 3.51562C110.847 3.51562 112.566 3.94547 114.035 4.78724C115.503 5.62902 116.632 6.79317 117.455 8.27971C118.279 9.76625 118.691 11.4856 118.691 13.4199C118.691 15.3542 118.279 17.0736 117.455 18.5601C116.632 20.0466 115.503 21.2108 114.053 22.0526C112.602 22.8943 110.954 23.3242 109.074 23.3242ZM109.074 19.4377C110.13 19.4377 111.062 19.187 111.85 18.6676C112.638 18.1482 113.264 17.4497 113.712 16.5542C114.16 15.6587 114.393 14.6199 114.393 13.4378C114.393 12.2558 114.16 11.217 113.712 10.3215C113.264 9.42596 112.62 8.72746 111.796 8.20807C110.972 7.68868 110.041 7.43794 108.984 7.43794C107.927 7.43794 106.996 7.68868 106.19 8.20807C105.384 8.72746 104.757 9.42596 104.292 10.3215C103.844 11.217 103.611 12.2558 103.611 13.4378C103.611 14.6199 103.844 15.6587 104.309 16.5542C104.775 17.4497 105.42 18.1482 106.244 18.6676C107.068 19.187 107.999 19.4377 109.056 19.4377H109.074Z" fill="white"/>
<path d="M127.843 4.85972C126.732 5.43285 125.801 6.27462 125.067 7.36714V3.96422H120.84V22.8594H125.067V12.7223C125.067 11.5581 125.389 10.6268 126.016 9.92828C126.643 9.22979 127.467 8.71039 128.487 8.40592C129.508 8.08354 130.601 7.94026 131.765 7.94026V3.89258C130.404 3.89258 129.096 4.21496 127.861 4.85972H127.843Z" fill="white"/>
<path d="M144.662 18.65C143.928 19.1694 142.997 19.4201 141.868 19.4201C140.74 19.4201 139.898 19.1873 139.057 18.7216C138.215 18.256 137.552 17.5754 137.051 16.6978C136.692 16.0351 136.46 15.2829 136.37 14.4232H150.644C150.644 12.1486 150.232 10.1964 149.427 8.5666C148.621 6.93678 147.546 5.68308 146.203 4.80548C144.859 3.92789 143.337 3.49805 141.654 3.49805C139.97 3.49805 138.125 3.92789 136.675 4.76966C135.224 5.61144 134.078 6.77559 133.254 8.26213C132.43 9.74867 132 11.468 132 13.4023C132 15.3366 132.412 17.056 133.236 18.5425C134.06 20.0291 135.17 21.1932 136.603 22.035C138.018 22.8768 139.666 23.3066 141.492 23.3066C143.319 23.3066 144.215 23.1096 145.325 22.6977C146.453 22.3036 147.421 21.7126 148.244 20.9604C149.068 20.2082 149.731 19.3306 150.268 18.3097L146.382 16.6441C145.97 17.45 145.415 18.1127 144.68 18.6321L144.662 18.65ZM136.907 10.0711C137.301 9.15764 137.91 8.45914 138.68 7.97557C139.469 7.492 140.4 7.25917 141.474 7.25917C142.549 7.25917 143.391 7.50991 144.107 8.0293C144.824 8.54869 145.379 9.33674 145.773 10.3934C145.845 10.6084 145.916 10.8412 145.988 11.074H136.585C136.675 10.7158 136.782 10.3755 136.925 10.0711H136.907Z" fill="white"/>
<path d="M9.38641 20.7441C8.75955 20.7441 8.1327 20.5291 7.61331 20.0993C6.44915 19.1142 6.30587 17.377 7.29092 16.2307L12.3595 10.2129C13.3445 9.04876 15.0818 8.90548 16.2281 9.89053C17.3922 10.8756 17.5355 12.6129 16.5504 13.7591L11.4819 19.7769C10.9446 20.4217 10.1565 20.762 9.36849 20.762L9.38641 20.7441Z" fill="white"/>
<path d="M3.11687 16.6971C2.49002 16.6971 1.86317 16.4822 1.34377 16.0523C0.179618 15.0673 0.0363375 13.33 1.02139 12.1837L8.93765 2.79885C9.92271 1.6347 11.66 1.49142 12.8062 2.47647C13.9704 3.46153 14.1137 5.19881 13.1286 6.34505L5.21235 15.7299C4.67505 16.3747 3.88701 16.715 3.09896 16.715L3.11687 16.6971Z" fill="white"/>
<path d="M16.1716 24.1841C15.5447 24.1841 14.9179 23.9692 14.3985 23.5393C13.2343 22.5543 13.091 20.817 14.0761 19.6708L20.47 12.0769C22.2073 9.99931 25.1982 9.6232 27.4012 11.1635L31.2698 6.56057C32.2548 5.39642 33.9921 5.25313 35.1383 6.23819C36.3025 7.22324 36.4458 8.96052 35.4607 10.1068L31.3951 14.9246C29.6579 17.0022 26.6669 17.3783 24.4639 15.838L18.2491 23.199C17.7118 23.8438 16.9238 24.1841 16.1357 24.1841H16.1716Z" fill="white"/>
</g>
<defs>
<clipPath id="clip0_4160_22610">
<rect width="151" height="25.307" fill="white" transform="translate(0 0.345703)"/>
</clipPath>
</defs>
</svg>
