<svg width="149" height="25" viewBox="0 0 149 25" fill="none" xmlns="http://www.w3.org/2000/svg">
<g clip-path="url(#clip0_1717_14020)">
<path d="M53.0885 18.0822C52.3639 18.5953 51.4449 18.843 50.3315 18.843C49.2181 18.843 48.3875 18.613 47.5569 18.1529C46.7262 17.6929 46.0723 17.0206 45.5775 16.1536C45.224 15.499 44.9943 14.7559 44.9059 13.9067H58.9912C58.9912 11.6597 58.5847 9.73114 57.7895 8.12109C56.9942 6.51104 55.9338 5.27254 54.6083 4.40559C53.2829 3.53864 51.7807 3.11401 50.1194 3.11401C48.4582 3.11401 46.6379 3.53864 45.2064 4.37021C43.7749 5.20177 42.6438 6.35181 41.8309 7.82031C41.0179 9.28882 40.5938 10.9873 40.5938 12.8982C40.5938 14.809 41.0002 16.5075 41.8132 17.976C42.6261 19.4445 43.7218 20.5946 45.1357 21.4261C46.5318 22.2577 48.1577 22.6823 49.9604 22.6823C51.763 22.6823 52.6467 22.4877 53.7424 22.0808C54.8558 21.6915 55.8101 21.1076 56.623 20.3645C57.436 19.6214 58.0899 18.7545 58.6201 17.746L54.7851 16.1006C54.3786 16.8967 53.8307 17.5514 53.1061 18.0645L53.0885 18.0822ZM45.4538 9.60729C45.8426 8.70495 46.4435 8.01493 47.2034 7.53723C47.981 7.05952 48.9 6.82951 49.9604 6.82951C51.0207 6.82951 51.8514 7.07721 52.5583 7.59031C53.2652 8.1034 53.8131 8.88188 54.2019 9.92576C54.2726 10.1381 54.3432 10.3681 54.4139 10.5981H45.1357C45.224 10.2442 45.3301 9.90807 45.4715 9.60729H45.4538Z" fill="#1975D1"/>
<path d="M75.6741 5.20166C74.437 3.82161 72.6874 3.13159 70.4253 3.13159C68.1631 3.13159 67.686 3.50314 66.6256 4.22855C65.901 4.72395 65.3001 5.37858 64.8053 6.17476L64.6109 3.57391H60.6875V22.2399H64.8583V12.4911C64.8583 10.7218 65.2471 9.35947 66.007 8.42175C66.7846 7.48403 67.8627 7.02402 69.2588 7.04171C70.0718 7.04171 70.7964 7.20095 71.3973 7.51942C71.9981 7.83789 72.4753 8.40406 72.8111 9.21793C73.1469 10.0318 73.3059 11.1818 73.3059 12.668V22.2222H77.4767V11.5357C77.4767 8.66945 76.8582 6.54631 75.6388 5.16627L75.6741 5.20166Z" fill="#1975D1"/>
<path d="M88.9821 22.6999C87.0734 22.6999 85.3768 22.2753 83.91 21.4437C82.4431 20.6121 81.2944 19.4621 80.4638 17.9936C79.6331 16.5251 79.209 14.8266 79.209 12.9157C79.209 11.0049 79.6331 9.3064 80.4638 7.83789C81.2944 6.36938 82.4431 5.21935 83.8923 4.38778C85.3415 3.55622 87.0204 3.13159 88.9114 3.13159C90.8024 3.13159 92.4106 3.57391 93.9128 4.45856C95.3973 5.3432 96.5107 6.59939 97.2353 8.24483L93.3473 9.73102C92.9408 8.91715 92.3399 8.24483 91.527 7.74943C90.714 7.25403 89.7774 7.00633 88.7347 7.00633C87.692 7.00633 86.8083 7.25403 86.013 7.76712C85.2178 8.28021 84.5992 8.97023 84.1397 9.85488C83.6979 10.7395 83.4681 11.748 83.4681 12.898C83.4681 14.0481 83.6979 15.0566 84.1574 15.9412C84.6169 16.8259 85.2531 17.5159 86.0661 18.029C86.879 18.5421 87.7803 18.7898 88.8054 18.7898C89.8304 18.7898 90.7847 18.5244 91.5977 17.9936C92.4106 17.4628 93.0292 16.7374 93.418 15.8174L97.306 17.3036C96.5814 19.0021 95.4857 20.3113 94.0012 21.2668C92.5167 22.2045 90.8554 22.6822 88.9821 22.6822V22.6999Z" fill="#1975D1"/>
<path d="M107.628 22.6999C105.737 22.6999 104.076 22.2753 102.626 21.4437C101.177 20.6121 100.046 19.4621 99.2332 17.9936C98.4202 16.5251 97.9961 14.8266 97.9961 12.9157C97.9961 11.0049 98.4026 9.3064 99.2155 7.83789C100.028 6.36938 101.142 5.21935 102.591 4.38778C104.04 3.55622 105.666 3.13159 107.522 3.13159C109.377 3.13159 111.074 3.55622 112.523 4.38778C113.972 5.21935 115.086 6.36938 115.899 7.83789C116.712 9.3064 117.118 11.0049 117.118 12.9157C117.118 14.8266 116.712 16.5251 115.899 17.9936C115.086 19.4621 113.972 20.6121 112.541 21.4437C111.109 22.2753 109.483 22.6999 107.628 22.6999ZM107.628 18.8605C108.671 18.8605 109.59 18.6128 110.367 18.0997C111.145 17.5867 111.763 16.8966 112.205 16.012C112.647 15.1273 112.877 14.1012 112.877 12.9334C112.877 11.7657 112.647 10.7395 112.205 9.85488C111.763 8.97023 111.127 8.28021 110.314 7.76712C109.501 7.25403 108.582 7.00633 107.539 7.00633C106.497 7.00633 105.578 7.25403 104.782 7.76712C103.987 8.28021 103.369 8.97023 102.909 9.85488C102.467 10.7395 102.238 11.7657 102.238 12.9334C102.238 14.1012 102.467 15.1273 102.927 16.012C103.386 16.8966 104.023 17.5867 104.835 18.0997C105.648 18.6128 106.567 18.8605 107.61 18.8605H107.628Z" fill="#1975D1"/>
<path d="M126.148 4.45859C125.053 5.02476 124.134 5.85632 123.409 6.93559V3.57395H119.238V22.2399H123.409V12.2257C123.409 11.0757 123.727 10.1557 124.346 9.46566C124.964 8.77564 125.777 8.26255 126.785 7.96177C127.792 7.6433 128.87 7.50176 130.019 7.50176V3.50317C128.676 3.50317 127.385 3.82165 126.166 4.45859H126.148Z" fill="#1975D1"/>
<path d="M142.743 18.0822C142.018 18.5953 141.099 18.843 139.986 18.843C138.872 18.843 138.042 18.613 137.211 18.1529C136.381 17.6929 135.727 17.0206 135.232 16.1536C134.878 15.499 134.649 14.7559 134.56 13.9067H148.646C148.646 11.6597 148.239 9.73114 147.444 8.12109C146.648 6.51104 145.588 5.27254 144.263 4.40559C142.937 3.53864 141.435 3.11401 139.774 3.11401C138.112 3.11401 136.292 3.53864 134.861 4.37021C133.429 5.20177 132.298 6.35181 131.485 7.82031C130.672 9.28882 130.248 10.9873 130.248 12.8982C130.248 14.809 130.655 16.5075 131.467 17.976C132.28 19.4445 133.376 20.5946 134.79 21.4261C136.186 22.2577 137.812 22.6823 139.615 22.6823C141.417 22.6823 142.301 22.4877 143.397 22.0808C144.51 21.6915 145.464 21.1076 146.277 20.3645C147.09 19.6214 147.744 18.7545 148.274 17.746L144.439 16.1006C144.033 16.8967 143.485 17.5514 142.76 18.0645L142.743 18.0822ZM135.09 9.60729C135.479 8.70495 136.08 8.01493 136.84 7.53723C137.618 7.05952 138.537 6.82951 139.597 6.82951C140.657 6.82951 141.488 7.07721 142.195 7.59031C142.902 8.1034 143.45 8.88188 143.838 9.92576C143.909 10.1381 143.98 10.3681 144.051 10.5981H134.772C134.861 10.2442 134.967 9.90807 135.108 9.60729H135.09Z" fill="#1975D1"/>
<path d="M9.26014 20.1523C8.64159 20.1523 8.02304 19.94 7.51053 19.5154C6.36179 18.5423 6.22041 16.8261 7.19242 15.6937L12.1938 9.74892C13.1658 8.59889 14.8801 8.45734 16.0112 9.43045C17.1599 10.4036 17.3013 12.1198 16.3293 13.2521L11.3279 19.1969C10.7977 19.8338 10.0201 20.17 9.24247 20.17L9.26014 20.1523Z" fill="#6EC9DE"/>
<path d="M3.07459 16.1536C2.45604 16.1536 1.83749 15.9413 1.32498 15.5167C0.176243 14.5436 0.0348602 12.8274 1.00687 11.695L8.81828 2.42397C9.79029 1.27393 11.5046 1.13239 12.6356 2.1055C13.7844 3.07861 13.9257 4.79481 12.9537 5.92715L5.14232 15.1982C4.61213 15.8352 3.83453 16.1713 3.05692 16.1713L3.07459 16.1536Z" fill="#D7E2EF"/>
<path d="M15.9574 23.5493C15.3389 23.5493 14.7203 23.337 14.2078 22.9124C13.0591 21.9393 12.9177 20.2231 13.8897 19.0907L20.1989 11.5889C21.9132 9.53657 24.8645 9.16502 27.0383 10.6866L30.8556 6.13955C31.8277 4.98951 33.5419 4.84797 34.673 5.82107C35.8217 6.79418 35.9631 8.51039 34.9911 9.64273L30.9794 14.4021C29.2651 16.4545 26.3137 16.826 24.1399 15.3044L18.0075 22.5762C17.4773 23.2131 16.6997 23.5493 15.9221 23.5493H15.9574Z" fill="#9BE8CB"/>
</g>
<defs>
<clipPath id="clip0_1717_14020">
<rect width="149" height="25" fill="white"/>
</clipPath>
</defs>
</svg>
