<svg width="24" height="24" viewBox="0 0 24 24" fill="none" xmlns="http://www.w3.org/2000/svg">
<path d="M11.75 2C9.82164 2 7.93657 2.57183 6.33319 3.64317C4.72982 4.71451 3.48013 6.23726 2.74218 8.01884C2.00422 9.80042 1.81114 11.7608 2.18735 13.6521C2.56355 15.5434 3.49215 17.2807 4.85571 18.6443C6.21928 20.0079 7.95656 20.9365 9.84787 21.3127C11.7392 21.6889 13.6996 21.4958 15.4812 20.7578C17.2627 20.0199 18.7855 18.7702 19.8568 17.1668C20.9282 15.5634 21.5 13.6784 21.5 11.75C21.4973 9.16498 20.4692 6.68661 18.6413 4.85872C16.8134 3.03084 14.335 2.00273 11.75 2ZM11.75 20C10.1183 20 8.52326 19.5161 7.16655 18.6096C5.80984 17.7031 4.75242 16.4146 4.128 14.9071C3.50358 13.3996 3.3402 11.7408 3.65853 10.1405C3.97685 8.54016 4.76259 7.07015 5.91637 5.91637C7.07016 4.76259 8.54017 3.97685 10.1405 3.65852C11.7409 3.34019 13.3997 3.50357 14.9071 4.12799C16.4146 4.75242 17.7031 5.80984 18.6096 7.16655C19.5161 8.52325 20 10.1183 20 11.75C19.9975 13.9373 19.1275 16.0343 17.5809 17.5809C16.0343 19.1275 13.9373 19.9975 11.75 20ZM16.25 11.75C16.25 11.9489 16.171 12.1397 16.0303 12.2803C15.8897 12.421 15.6989 12.5 15.5 12.5H12.5V15.5C12.5 15.6989 12.421 15.8897 12.2803 16.0303C12.1397 16.171 11.9489 16.25 11.75 16.25C11.5511 16.25 11.3603 16.171 11.2197 16.0303C11.079 15.8897 11 15.6989 11 15.5V12.5H8C7.80109 12.5 7.61033 12.421 7.46967 12.2803C7.32902 12.1397 7.25 11.9489 7.25 11.75C7.25 11.5511 7.32902 11.3603 7.46967 11.2197C7.61033 11.079 7.80109 11 8 11H11V8C11 7.80109 11.079 7.61032 11.2197 7.46967C11.3603 7.32902 11.5511 7.25 11.75 7.25C11.9489 7.25 12.1397 7.32902 12.2803 7.46967C12.421 7.61032 12.5 7.80109 12.5 8V11H15.5C15.6989 11 15.8897 11.079 16.0303 11.2197C16.171 11.3603 16.25 11.5511 16.25 11.75Z" fill="white"/>
</svg>
