<svg width="25" height="24" viewBox="0 0 25 24" fill="none" xmlns="http://www.w3.org/2000/svg">
<path d="M21.8045 7.28104L9.80448 19.281C9.73483 19.3508 9.65211 19.4061 9.56106 19.4438C9.47001 19.4816 9.37242 19.501 9.27385 19.501C9.17529 19.501 9.0777 19.4816 8.98665 19.4438C8.8956 19.4061 8.81288 19.3508 8.74323 19.281L3.49323 14.031C3.3525 13.8903 3.27344 13.6994 3.27344 13.5004C3.27344 13.3014 3.3525 13.1105 3.49323 12.9698C3.63396 12.8291 3.82483 12.75 4.02385 12.75C4.22288 12.75 4.41375 12.8291 4.55448 12.9698L9.27385 17.6901L20.7432 6.21979C20.884 6.07906 21.0748 6 21.2739 6C21.4729 6 21.6637 6.07906 21.8045 6.21979C21.9452 6.36052 22.0243 6.55139 22.0243 6.75042C22.0243 6.94944 21.9452 7.14031 21.8045 7.28104Z" fill="#1EAB88"/>
</svg>
