<svg width="25" height="24" viewBox="0 0 25 24" fill="none" xmlns="http://www.w3.org/2000/svg">
<path d="M20.5234 3H8.52344C8.32453 3 8.13376 3.07902 7.99311 3.21967C7.85246 3.36032 7.77344 3.55109 7.77344 3.75V7.5H4.02344C3.82453 7.5 3.63376 7.57902 3.49311 7.71967C3.35246 7.86032 3.27344 8.05109 3.27344 8.25V20.25C3.27344 20.4489 3.35246 20.6397 3.49311 20.7803C3.63376 20.921 3.82453 21 4.02344 21H16.0234C16.2224 21 16.4131 20.921 16.5538 20.7803C16.6944 20.6397 16.7734 20.4489 16.7734 20.25V16.5H20.5234C20.7223 16.5 20.9131 16.421 21.0538 16.2803C21.1944 16.1397 21.2734 15.9489 21.2734 15.75V3.75C21.2734 3.55109 21.1944 3.36032 21.0538 3.21967C20.9131 3.07902 20.7223 3 20.5234 3ZM15.2734 19.5H4.77344V9H15.2734V19.5ZM19.7734 15H16.7734V8.25C16.7734 8.05109 16.6944 7.86032 16.5538 7.71967C16.4131 7.57902 16.2224 7.5 16.0234 7.5H9.27344V4.5H19.7734V15Z" fill="#6F7886"/>
</svg>
