<svg width="24" height="24" viewBox="0 0 24 24" fill="none" xmlns="http://www.w3.org/2000/svg">
<path d="M20.25 6.75001H12.3103L9.75 4.18969C9.61122 4.0498 9.44601 3.93889 9.26398 3.86341C9.08196 3.78792 8.88674 3.74938 8.68969 3.75001H3.75C3.35218 3.75001 2.97064 3.90804 2.68934 4.18935C2.40804 4.47065 2.25 4.85218 2.25 5.25001V18.8081C2.2505 19.1904 2.40257 19.5568 2.67286 19.8271C2.94316 20.0974 3.30962 20.2495 3.69188 20.25H20.3334C20.709 20.2495 21.069 20.1001 21.3346 19.8346C21.6001 19.569 21.7495 19.209 21.75 18.8334V8.25001C21.75 7.85218 21.592 7.47065 21.3107 7.18935C21.0294 6.90804 20.6478 6.75001 20.25 6.75001ZM3.75 5.25001H8.68969L10.1897 6.75001H3.75V5.25001ZM20.25 18.75H3.75V8.25001H20.25V18.75Z" fill="white"/>
<path d="M12.6634 17.285C12.5227 17.4257 12.3318 17.5047 12.1328 17.5047C11.9338 17.5047 11.7429 17.4257 11.6022 17.285C11.4615 17.1442 11.3824 16.9534 11.3824 16.7543C11.3824 16.5553 11.4615 16.3644 11.6022 16.2237L13.3225 14.5043L7.63281 14.5043C7.4339 14.5043 7.24313 14.4253 7.10248 14.2847C6.96183 14.144 6.88281 13.9532 6.88281 13.7543C6.88281 13.5554 6.96183 13.3646 7.10248 13.224C7.24313 13.0833 7.4339 13.0043 7.63281 13.0043L13.3225 13.0043L11.6022 11.285C11.4615 11.1442 11.3824 10.9534 11.3824 10.7543C11.3824 10.5553 11.4615 10.3644 11.6022 10.2237C11.7429 10.083 11.9338 10.0039 12.1328 10.0039C12.3318 10.0039 12.5227 10.083 12.6634 10.2237L15.6634 13.2237C15.7332 13.2934 15.7885 13.3761 15.8262 13.4671C15.864 13.5582 15.8834 13.6558 15.8834 13.7543C15.8834 13.8529 15.864 13.9505 15.8262 14.0415C15.7885 14.1326 15.7332 14.2153 15.6634 14.285L12.6634 17.285Z" fill="white"/>
</svg>
