<svg width="32" height="32" viewBox="0 0 32 32" fill="none" xmlns="http://www.w3.org/2000/svg">
<path d="M27.0591 10.4937L20.0591 3.49367C19.9661 3.40084 19.8558 3.32722 19.7344 3.27704C19.613 3.22685 19.4829 3.20107 19.3516 3.20117H7.35156C6.82113 3.20117 6.31242 3.41189 5.93735 3.78696C5.56228 4.16203 5.35156 4.67074 5.35156 5.20117V27.2012C5.35156 27.7316 5.56228 28.2403 5.93735 28.6154C6.31242 28.9905 6.82113 29.2012 7.35156 29.2012H25.3516C25.882 29.2012 26.3907 28.9905 26.7658 28.6154C27.1408 28.2403 27.3516 27.7316 27.3516 27.2012V11.2012C27.3517 11.0698 27.3259 10.9397 27.2757 10.8183C27.2255 10.6969 27.1519 10.5866 27.0591 10.4937ZM20.3516 6.61492L23.9378 10.2012H20.3516V6.61492ZM25.3516 27.2012H7.35156V5.20117H18.3516V11.2012C18.3516 11.4664 18.4569 11.7207 18.6445 11.9083C18.832 12.0958 19.0863 12.2012 19.3516 12.2012H25.3516V27.2012Z" fill="#6F7886"/>
</svg>
