<svg width="25" height="24" viewBox="0 0 25 24" fill="none" xmlns="http://www.w3.org/2000/svg">
<path d="M22.0378 7.62821L17.8481 3.43946C17.7088 3.30014 17.5435 3.18962 17.3615 3.11421C17.1794 3.03881 16.9844 3 16.7873 3C16.5903 3 16.3953 3.03881 16.2132 3.11421C16.0312 3.18962 15.8659 3.30014 15.7266 3.43946L4.16626 14.9998C4.02636 15.1386 3.91545 15.3038 3.83997 15.4858C3.76449 15.6678 3.72594 15.863 3.72657 16.0601V20.2498C3.72657 20.6476 3.88461 21.0291 4.16591 21.3104C4.44721 21.5917 4.82875 21.7498 5.22657 21.7498H20.9766C21.1755 21.7498 21.3662 21.6708 21.5069 21.5301C21.6476 21.3895 21.7266 21.1987 21.7266 20.9998C21.7266 20.8009 21.6476 20.6101 21.5069 20.4694C21.3662 20.3288 21.1755 20.2498 20.9766 20.2498H11.5378L22.0378 9.74977C22.1771 9.61048 22.2877 9.44511 22.3631 9.2631C22.4385 9.08109 22.4773 8.886 22.4773 8.68899C22.4773 8.49198 22.4385 8.2969 22.3631 8.11489C22.2877 7.93288 22.1771 7.7675 22.0378 7.62821ZM9.41626 20.2498H5.22657V16.0601L13.4766 7.81009L17.6663 11.9998L9.41626 20.2498ZM18.7266 10.9395L14.5378 6.74977L16.7878 4.49977L20.9766 8.68946L18.7266 10.9395Z" fill="white"/>
</svg>
