<svg width="54" height="24" viewBox="0 0 54 24" fill="none" xmlns="http://www.w3.org/2000/svg">
<path d="M9.62342 19.6474C9.00487 19.6474 8.38632 19.4351 7.87381 19.0105C6.72507 18.0374 6.58369 16.3212 7.5557 15.1888L12.5571 9.24404C13.5291 8.094 15.2434 7.95246 16.3745 8.92557C17.5232 9.89867 17.6646 11.6149 16.6926 12.7472L11.6911 18.692C11.161 19.329 10.3834 19.6651 9.60575 19.6651L9.62342 19.6474Z" fill="#6EC9DE"/>
<path d="M3.43983 15.6495C2.82128 15.6495 2.20273 15.4372 1.69021 15.0125C0.541478 14.0394 0.400095 12.3232 1.3721 11.1909L9.18351 1.91982C10.1555 0.769784 11.8698 0.628241 13.0009 1.60135C14.1496 2.57445 14.291 4.29066 13.319 5.423L5.50756 14.6941C4.97737 15.331 4.19976 15.6672 3.42216 15.6672L3.43983 15.6495Z" fill="#D7E2EF"/>
<path d="M16.3226 23.0444C15.7041 23.0444 15.0855 22.8321 14.573 22.4075C13.4243 21.4344 13.2829 19.7182 14.2549 18.5858L20.5641 11.0841C22.2784 9.03169 25.2298 8.66014 27.4035 10.1817L31.2209 5.63466C32.1929 4.48463 33.9072 4.34308 35.0382 5.31619C36.187 6.2893 36.3283 8.00551 35.3563 9.13785L31.3446 13.8972C29.6303 15.9496 26.6789 16.3211 24.5052 14.7996L18.3727 22.0713C17.8425 22.7083 17.0649 23.0444 16.2873 23.0444H16.3226Z" fill="#9BE8CB"/>
<path d="M44 7C44 7 44.773 10.3182 46.2274 11.7726C47.6818 13.227 51 14 51 14C51 14 47.6818 14.773 46.2274 16.2274C44.773 17.6818 44 21 44 21C44 21 43.227 17.6818 41.7726 16.2274C40.3182 14.773 37 14 37 14C37 14 40.3182 13.227 41.7726 11.7726C43.227 10.3182 44 7 44 7Z" fill="white"/>
<path d="M51 3C51 3 51.3313 4.4221 51.9546 5.04541C52.5779 5.66871 54 6 54 6C54 6 52.5779 6.33129 51.9546 6.95459C51.3313 7.5779 51 9 51 9C51 9 50.6687 7.5779 50.0454 6.95459C49.4221 6.33129 48 6 48 6C48 6 49.4221 5.66871 50.0454 5.04541C50.6687 4.4221 51 3 51 3Z" fill="white"/>
</svg>
