<svg width="61" height="26" viewBox="0 0 61 26" fill="none" xmlns="http://www.w3.org/2000/svg">
<path d="M10.0707 21.6566C9.37064 21.6566 8.67061 21.4164 8.09059 20.9358C6.79053 19.8345 6.63053 17.8922 7.73057 16.6107L13.3908 9.88284C14.4909 8.58131 16.4309 8.42113 17.711 9.52242C19.0111 10.6237 19.1711 12.566 18.071 13.8475L12.4108 20.5754C11.8107 21.2962 10.9307 21.6767 10.0507 21.6767L10.0707 21.6566Z" fill="#6EC9DE"/>
<path d="M3.07067 17.13C2.37064 17.13 1.67061 16.8897 1.09059 16.4092C-0.209465 15.3079 -0.369472 13.3656 0.730575 12.0841L9.57095 1.59182C10.671 0.290298 12.6111 0.13011 13.8911 1.2314C15.1912 2.33269 15.3512 4.27497 14.2512 5.55647L5.41077 16.0488C4.81075 16.7696 3.93071 17.1501 3.05067 17.1501L3.07067 17.13Z" fill="#D7E2EF"/>
<path d="M17.6488 25.5C16.9488 25.5 16.2487 25.2597 15.6687 24.7791C14.3687 23.6779 14.2087 21.7356 15.3087 20.4541L22.449 11.9641C24.3891 9.64141 27.7292 9.22091 30.1893 10.9429L34.5095 5.7969C35.6096 4.49538 37.5496 4.33519 38.8297 5.43648C40.1298 6.53777 40.2898 8.48004 39.1897 9.76155L34.6495 15.1479C32.7094 17.4706 29.3693 17.8911 26.9092 16.1691L19.9689 24.3987C19.3689 25.1195 18.4888 25.5 17.6088 25.5H17.6488Z" fill="#9BE8CB"/>
<path d="M48.9768 7.3418C48.9768 7.3418 49.8516 11.0971 51.4976 12.7431C53.1435 14.3891 56.8989 15.2639 56.8989 15.2639C56.8989 15.2639 53.1435 16.1387 51.4976 17.7847C49.8516 19.4306 48.9768 23.186 48.9768 23.186C48.9768 23.186 48.1019 19.4306 46.456 17.7847C44.81 16.1387 41.0547 15.2639 41.0547 15.2639C41.0547 15.2639 44.81 14.3891 46.456 12.7431C48.1019 11.0971 48.9768 7.3418 48.9768 7.3418Z" fill="#163355"/>
<path d="M56.8991 2.81445C56.8991 2.81445 57.274 4.42388 57.9794 5.12929C58.6848 5.83471 60.2943 6.20963 60.2943 6.20963C60.2943 6.20963 58.6848 6.58456 57.9794 7.28997C57.274 7.99538 56.8991 9.60481 56.8991 9.60481C56.8991 9.60481 56.5242 7.99538 55.8187 7.28997C55.1133 6.58456 53.5039 6.20963 53.5039 6.20963C53.5039 6.20963 55.1133 5.83471 55.8187 5.12929C56.5242 4.42388 56.8991 2.81445 56.8991 2.81445Z" fill="#163355"/>
</svg>
