<svg width="24" height="24" viewBox="0 0 24 24" fill="none" xmlns="http://www.w3.org/2000/svg">
<path d="M18.082 7.18951C17.6927 7.18896 17.3083 7.27578 16.957 7.44357V4.56451C16.9569 4.10961 16.8386 3.66255 16.6136 3.26716C16.3887 2.87176 16.0649 2.54161 15.6739 2.30907C15.2829 2.07653 14.8382 1.94959 14.3834 1.94068C13.9286 1.93177 13.4793 2.04121 13.0795 2.25826C12.8871 1.66349 12.4887 1.15693 11.956 0.829724C11.4234 0.502516 10.7914 0.37614 10.1739 0.473335C9.55637 0.57053 8.9938 0.884914 8.58741 1.35992C8.18102 1.83493 7.95748 2.43938 7.95703 3.06451V3.69357C7.60576 3.52578 7.22132 3.43896 6.83203 3.43951C6.13584 3.43951 5.46816 3.71607 4.97588 4.20835C4.48359 4.70063 4.20703 5.36831 4.20703 6.06451V13.1895C4.20703 15.3775 5.07623 17.476 6.6234 19.0231C8.17058 20.5703 10.269 21.4395 12.457 21.4395C14.6451 21.4395 16.7435 20.5703 18.2907 19.0231C19.8378 17.476 20.707 15.3775 20.707 13.1895V9.81451C20.707 9.11831 20.4305 8.45063 19.9382 7.95835C19.4459 7.46607 18.7782 7.18951 18.082 7.18951ZM19.207 13.1895C19.207 14.9797 18.4959 16.6966 17.23 17.9625C15.9641 19.2283 14.2472 19.9395 12.457 19.9395C10.6668 19.9395 8.94993 19.2283 7.68406 17.9625C6.41819 16.6966 5.70703 14.9797 5.70703 13.1895V6.06451C5.70703 5.76614 5.82556 5.47999 6.03654 5.26901C6.24751 5.05803 6.53366 4.93951 6.83203 4.93951C7.1304 4.93951 7.41655 5.05803 7.62753 5.26901C7.83851 5.47999 7.95703 5.76614 7.95703 6.06451V10.1895C7.95703 10.3884 8.03605 10.5792 8.1767 10.7198C8.31735 10.8605 8.50812 10.9395 8.70703 10.9395C8.90594 10.9395 9.09671 10.8605 9.23736 10.7198C9.37801 10.5792 9.45703 10.3884 9.45703 10.1895V3.06451C9.45703 2.76614 9.57556 2.47999 9.78654 2.26901C9.99751 2.05803 10.2837 1.93951 10.582 1.93951C10.8804 1.93951 11.1665 2.05803 11.3775 2.26901C11.5885 2.47999 11.707 2.76614 11.707 3.06451V9.43951C11.707 9.63842 11.786 9.82918 11.9267 9.96984C12.0674 10.1105 12.2581 10.1895 12.457 10.1895C12.6559 10.1895 12.8467 10.1105 12.9874 9.96984C13.128 9.82918 13.207 9.63842 13.207 9.43951V4.56451C13.207 4.26614 13.3256 3.97999 13.5365 3.76901C13.7475 3.55803 14.0337 3.43951 14.332 3.43951C14.6304 3.43951 14.9165 3.55803 15.1275 3.76901C15.3385 3.97999 15.457 4.26614 15.457 4.56451V11.0023C14.4091 11.181 13.458 11.7242 12.7718 12.5362C12.0856 13.3481 11.7085 14.3764 11.707 15.4395C11.707 15.6384 11.786 15.8292 11.9267 15.9698C12.0674 16.1105 12.2581 16.1895 12.457 16.1895C12.6559 16.1895 12.8467 16.1105 12.9874 15.9698C13.128 15.8292 13.207 15.6384 13.207 15.4395C13.207 14.6439 13.5231 13.8808 14.0857 13.3182C14.6483 12.7556 15.4114 12.4395 16.207 12.4395C16.4059 12.4395 16.5967 12.3605 16.7374 12.2198C16.878 12.0792 16.957 11.8884 16.957 11.6895V9.81451C16.957 9.51614 17.0756 9.22999 17.2865 9.01901C17.4975 8.80803 17.7837 8.68951 18.082 8.68951C18.3804 8.68951 18.6665 8.80803 18.8775 9.01901C19.0885 9.22999 19.207 9.51614 19.207 9.81451V13.1895Z" fill="#6F7886"/>
</svg>
