<svg width="20" height="21" viewBox="0 0 20 21" fill="none" xmlns="http://www.w3.org/2000/svg">
<path d="M8.55099 4.8418C8.55099 4.8418 9.42582 8.59712 11.0718 10.2431C12.7177 11.8891 16.4731 12.7639 16.4731 12.7639C16.4731 12.7639 12.7177 13.6387 11.0718 15.2847C9.42582 16.9306 8.55099 20.686 8.55099 20.686C8.55099 20.686 7.67616 16.9306 6.0302 15.2847C4.38423 13.6387 0.628906 12.7639 0.628906 12.7639C0.628906 12.7639 4.38423 11.8891 6.0302 10.2431C7.67616 8.59712 8.55099 4.8418 8.55099 4.8418Z" fill="#163355"/>
<path d="M16.4733 0.314453C16.4733 0.314453 16.8482 1.92388 17.5536 2.62929C18.2591 3.33471 19.8685 3.70963 19.8685 3.70963C19.8685 3.70963 18.2591 4.08456 17.5536 4.78997C16.8482 5.49538 16.4733 7.10481 16.4733 7.10481C16.4733 7.10481 16.0984 5.49538 15.393 4.78997C14.6876 4.08456 13.0781 3.70963 13.0781 3.70963C13.0781 3.70963 14.6876 3.33471 15.393 2.62929C16.0984 1.92388 16.4733 0.314453 16.4733 0.314453Z" fill="#163355"/>
</svg>
