<svg width="24" height="25" viewBox="0 0 24 25" fill="none" xmlns="http://www.w3.org/2000/svg">
<path d="M22.4225 9.61799C22.3287 9.32974 22.1517 9.07568 21.9138 8.88783C21.6759 8.69998 21.3877 8.58673 21.0856 8.56237L15.5543 8.11612L13.4187 2.95143C13.3032 2.67001 13.1066 2.42929 12.854 2.25987C12.6013 2.09046 12.304 2 11.9998 2C11.6956 2 11.3983 2.09046 11.1456 2.25987C10.893 2.42929 10.6964 2.67001 10.5809 2.95143L8.44714 8.11518L2.91308 8.56237C2.61043 8.58797 2.32207 8.7023 2.08412 8.89106C1.84617 9.07982 1.66921 9.3346 1.57542 9.62348C1.48163 9.91237 1.47517 10.2225 1.55686 10.515C1.63855 10.8076 1.80475 11.0695 2.03464 11.268L6.25339 14.9083L4.96808 20.3514C4.8962 20.6471 4.9138 20.9575 5.01865 21.2432C5.1235 21.5289 5.31087 21.777 5.55698 21.956C5.80309 22.135 6.09684 22.2369 6.40093 22.2486C6.70503 22.2604 7.00576 22.1815 7.26496 22.0221L11.9993 19.1083L16.7365 22.0221C16.9958 22.1796 17.2959 22.257 17.5991 22.2443C17.9022 22.2317 18.1949 22.1297 18.4401 21.951C18.6854 21.7724 18.8724 21.5252 18.9774 21.2406C19.0825 20.9559 19.101 20.6466 19.0306 20.3514L17.7406 14.9074L21.9593 11.2671C22.1911 11.0689 22.3588 10.8064 22.4413 10.5128C22.5237 10.2193 22.5172 9.90784 22.4225 9.61799ZM20.9843 10.1308L16.4187 14.0683C16.3146 14.1581 16.2371 14.2747 16.1948 14.4055C16.1525 14.5362 16.1469 14.6761 16.1787 14.8099L17.5737 20.6974C17.5773 20.7055 17.5777 20.7147 17.5747 20.723C17.5717 20.7314 17.5657 20.7383 17.5578 20.7424C17.5409 20.7555 17.5362 20.7527 17.5221 20.7424L12.3921 17.5877C12.274 17.515 12.138 17.4766 11.9993 17.4766C11.8606 17.4766 11.7247 17.515 11.6065 17.5877L6.47652 20.7442L6.47549 20.7449C6.46226 20.7528 6.45827 20.7552 6.44089 20.7442C6.43298 20.7402 6.42692 20.7333 6.42395 20.7249C6.42099 20.7165 6.42135 20.7074 6.42496 20.6992L7.81996 14.8117C7.85175 14.678 7.84618 14.5381 7.80385 14.4073C7.76153 14.2766 7.68407 14.1599 7.57996 14.0702L3.01433 10.1327C3.00308 10.1233 2.99277 10.1149 3.00214 10.0858C3.01152 10.0567 3.01902 10.0605 3.03308 10.0586L9.02558 9.57487C9.16303 9.56308 9.29456 9.51361 9.40571 9.4319C9.51686 9.35019 9.60332 9.23941 9.65558 9.11174L11.9637 3.52331L11.9644 3.52187C11.9714 3.50692 11.9747 3.49987 11.9965 3.49987C12.0183 3.49987 12.0216 3.50692 12.0287 3.52188L12.0293 3.52331L14.3431 9.11174C14.3958 9.23946 14.4828 9.35012 14.5945 9.43152C14.7062 9.51291 14.8382 9.56187 14.9759 9.57299L20.9684 10.0567C20.9825 10.0567 20.9909 10.0567 20.9993 10.0839C21.0078 10.1111 20.9993 10.1214 20.9843 10.1308Z" fill="#E2A139"/>
<path d="M20.9843 10.1308L16.4187 14.0683C16.3146 14.1581 16.2371 14.2747 16.1948 14.4055C16.1525 14.5362 16.1469 14.6761 16.1787 14.8099L17.5737 20.6974C17.5773 20.7055 17.5777 20.7147 17.5747 20.723C17.5717 20.7314 17.5657 20.7383 17.5578 20.7424C17.5409 20.7555 17.5362 20.7527 17.5221 20.7424L12.3921 17.5877C12.274 17.515 12.138 17.4766 11.9993 17.4766C11.8606 17.4766 11.7247 17.515 11.6065 17.5877L6.47652 20.7442L6.47549 20.7449C6.46226 20.7528 6.45827 20.7552 6.44089 20.7442C6.43298 20.7402 6.42692 20.7333 6.42395 20.7249C6.42099 20.7165 6.42135 20.7074 6.42496 20.6992L7.81996 14.8117C7.85175 14.678 7.84618 14.5381 7.80385 14.4073C7.76153 14.2766 7.68407 14.1599 7.57996 14.0702L3.01433 10.1327C3.00308 10.1233 2.99277 10.1149 3.00214 10.0858C3.01152 10.0567 3.01902 10.0605 3.03308 10.0586L9.02558 9.57487C9.16303 9.56308 9.29456 9.51361 9.40571 9.4319C9.51686 9.35019 9.60332 9.23941 9.65558 9.11174L11.9637 3.52331L11.9644 3.52187C11.9714 3.50692 11.9747 3.49987 11.9965 3.49987C12.0183 3.49987 12.0216 3.50692 12.0287 3.52188L12.0293 3.52331L14.3431 9.11174C14.3958 9.23946 14.4828 9.35012 14.5945 9.43152C14.7062 9.51291 14.8382 9.56187 14.9759 9.57299L20.9684 10.0567C20.9825 10.0567 20.9909 10.0567 20.9993 10.0839C21.0078 10.1111 20.9993 10.1214 20.9843 10.1308Z" fill="#E2A139"/>
</svg>
