<svg width="25" height="24" viewBox="0 0 25 24" fill="none" xmlns="http://www.w3.org/2000/svg">
<path d="M19.5545 18.2198C19.6242 18.2895 19.6794 18.3722 19.7171 18.4632C19.7549 18.5543 19.7743 18.6519 19.7743 18.7504C19.7743 18.849 19.7549 18.9465 19.7171 19.0376C19.6794 19.1286 19.6242 19.2114 19.5545 19.281C19.4848 19.3507 19.4021 19.406 19.311 19.4437C19.22 19.4814 19.1224 19.5008 19.0239 19.5008C18.9253 19.5008 18.8277 19.4814 18.7367 19.4437C18.6456 19.406 18.5629 19.3507 18.4932 19.281L12.2739 13.0607L6.05448 19.281C5.91375 19.4218 5.72288 19.5008 5.52385 19.5008C5.32483 19.5008 5.13396 19.4218 4.99323 19.281C4.8525 19.1403 4.77344 18.9494 4.77344 18.7504C4.77344 18.5514 4.8525 18.3605 4.99323 18.2198L11.2135 12.0004L4.99323 5.78104C4.8525 5.64031 4.77344 5.44944 4.77344 5.25042C4.77344 5.05139 4.8525 4.86052 4.99323 4.71979C5.13396 4.57906 5.32483 4.5 5.52385 4.5C5.72288 4.5 5.91375 4.57906 6.05448 4.71979L12.2739 10.9401L18.4932 4.71979C18.634 4.57906 18.8248 4.5 19.0239 4.5C19.2229 4.5 19.4137 4.57906 19.5545 4.71979C19.6952 4.86052 19.7743 5.05139 19.7743 5.25042C19.7743 5.44944 19.6952 5.64031 19.5545 5.78104L13.3342 12.0004L19.5545 18.2198Z" fill="#E23939"/>
</svg>
