<svg width="44" height="18" viewBox="0 0 44 18" fill="none" xmlns="http://www.w3.org/2000/svg">
<path d="M7.25388 14.4172C6.93915 14.4172 6.6208 14.3102 6.35152 14.0885C5.75948 13.5838 5.69413 12.7042 6.18728 12.1297L6.18731 12.1298L6.19252 12.1236L10.2667 7.28087C10.2669 7.28065 10.2671 7.28044 10.2673 7.28022C10.7708 6.68524 11.6496 6.61931 12.2235 7.11307L12.2235 7.11308L12.2283 7.11712C12.8234 7.62129 12.89 8.50311 12.3959 9.0787L12.3959 9.07867L12.3907 9.08486L8.31523 13.929L8.31522 13.929L8.31249 13.9323C8.08736 14.2027 7.77201 14.3693 7.43984 14.4172H7.25388Z" stroke="#6F7886" stroke-width="1.6297"/>
<path d="M3.26952 10.6739C3.04439 10.9444 2.72904 11.1109 2.39687 11.1589H2.21091C1.89617 11.1589 1.57782 11.0519 1.30853 10.8301C0.716509 10.3255 0.651169 9.44589 1.14431 8.8714L1.14434 8.87142L1.14917 8.86569L7.51349 1.31212C7.5136 1.312 7.51371 1.31187 7.51381 1.31175C8.01725 0.716509 8.89629 0.650483 9.47028 1.14432L9.47027 1.14433L9.47503 1.14837C10.0702 1.65254 10.1367 2.53436 9.64264 3.10995L9.64261 3.10992L9.63778 3.11565L3.27265 10.6702L3.27264 10.6702L3.26952 10.6739Z" stroke="#6F7886" stroke-width="1.6297"/>
<path d="M13.7551 16.6856C13.4883 17.0062 13.0947 17.1808 12.6965 17.1849C12.3865 17.1817 12.0737 17.0746 11.8085 16.8562C11.2165 16.3515 11.1512 15.472 11.6443 14.8975L11.6443 14.8975L11.6496 14.8912L16.7907 8.7784L16.7907 8.7784L16.7925 8.77628C17.9155 7.43175 19.845 7.18669 21.2729 8.1862L21.8844 8.61421L22.3643 8.04257L25.4731 4.33946C25.4734 4.33916 25.4736 4.33885 25.4739 4.33854C25.9774 3.74381 26.8561 3.67798 27.4299 4.17166L27.4299 4.17168L27.4346 4.17571C28.0298 4.67988 28.0963 5.56171 27.6022 6.13729L27.6022 6.13727L27.5975 6.14287L24.3285 10.0211L24.3285 10.021L24.3262 10.0239C23.2031 11.3684 21.2737 11.6134 19.8457 10.6139L19.2356 10.1869L18.7555 10.7562L13.7585 16.6816L13.7585 16.6816L13.7551 16.6856Z" stroke="#6F7886" stroke-width="1.6297"/>
<path d="M36.5033 9.39069C37.0293 9.91667 37.761 10.3257 38.4435 10.6295C37.761 10.9333 37.0293 11.3423 36.5033 11.8683C35.9773 12.3943 35.5683 13.126 35.2645 13.8085C34.9607 13.126 34.5517 12.3943 34.0257 11.8683C33.4997 11.3423 32.768 10.9333 32.0855 10.6295C32.768 10.3257 33.4997 9.91667 34.0257 9.39069C34.5517 8.86472 34.9607 8.13299 35.2645 7.45046C35.5683 8.13299 35.9773 8.86472 36.5033 9.39069Z" stroke="#6F7886" stroke-width="1.6297"/>
<path d="M40.968 3.67698C41.0304 3.75885 41.0975 3.83703 41.1697 3.90915C41.2418 3.98127 41.32 4.04841 41.4018 4.11081C41.32 4.17322 41.2418 4.24036 41.1697 4.31248C41.0975 4.3846 41.0304 4.46278 40.968 4.54465C40.9056 4.46278 40.8384 4.3846 40.7663 4.31248C40.6942 4.24036 40.616 4.17322 40.5342 4.11081C40.616 4.04841 40.6942 3.98127 40.7663 3.90915L40.1901 3.33296L40.7663 3.90915C40.8384 3.83703 40.9056 3.75885 40.968 3.67698Z" stroke="#6F7886" stroke-width="1.6297"/>
</svg>
