<svg width="44" height="18" viewBox="0 0 44 18" fill="none" xmlns="http://www.w3.org/2000/svg">
<path d="M7.25388 15.2321C6.74985 15.2321 6.24582 15.0591 5.8282 14.7131C4.89215 13.9201 4.77695 12.5217 5.56899 11.599L9.6444 6.75487C10.4364 5.81776 11.8333 5.70243 12.755 6.49536C13.691 7.2883 13.8062 8.68675 13.0142 9.60945L8.93877 14.4536C8.50674 14.9726 7.87311 15.2465 7.23948 15.2465L7.25388 15.2321Z" fill="#1B1B1B"/>
<path d="M2.21091 11.9737C1.70688 11.9737 1.20285 11.8007 0.785233 11.4547C-0.150817 10.6618 -0.266023 9.26334 0.526019 8.34065L6.89116 0.786121C7.6832 -0.150987 9.08007 -0.266324 10.0017 0.526614C10.9378 1.31955 11.053 2.718 10.2609 3.64069L3.8958 11.1952C3.46377 11.7142 2.83014 11.9882 2.19651 11.9882L2.21091 11.9737Z" fill="#1B1B1B"/>
<path d="M12.7109 17.9998C12.2069 17.9998 11.7029 17.8268 11.2852 17.4808C10.3492 16.6879 10.234 15.2894 11.026 14.3667L16.1671 8.25391C17.564 6.58154 19.9689 6.27878 21.7402 7.51864L24.8508 3.81346C25.6428 2.87636 27.0397 2.76102 27.9613 3.55396C28.8974 4.34689 29.0126 5.74535 28.2205 6.66804L24.9516 10.5462C23.5547 12.2186 21.1498 12.5214 19.3785 11.2815L14.3814 17.2069C13.9494 17.7259 13.3157 17.9998 12.6821 17.9998H12.7109Z" fill="#1B1B1B"/>
<path d="M35.2645 4.92578C35.2645 4.92578 35.8944 7.62964 37.0795 8.81475C38.2646 9.99986 40.9685 10.6297 40.9685 10.6297C40.9685 10.6297 38.2646 11.2596 37.0795 12.4447C35.8944 13.6298 35.2645 16.3337 35.2645 16.3337C35.2645 16.3337 34.6346 13.6298 33.4495 12.4447C32.2644 11.2596 29.5605 10.6297 29.5605 10.6297C29.5605 10.6297 32.2644 9.99986 33.4495 8.81475C34.6346 7.62964 35.2645 4.92578 35.2645 4.92578Z" fill="#1B1B1B"/>
<path d="M40.968 1.6665C40.968 1.6665 41.2379 2.8253 41.7458 3.33321C42.2537 3.84111 43.4125 4.11106 43.4125 4.11106C43.4125 4.11106 42.2537 4.38101 41.7458 4.88891C41.2379 5.39681 40.968 6.55561 40.968 6.55561C40.968 6.55561 40.698 5.39681 40.1901 4.88891C39.6822 4.38101 38.5234 4.11106 38.5234 4.11106C38.5234 4.11106 39.6822 3.84111 40.1901 3.33321C40.698 2.8253 40.968 1.6665 40.968 1.6665Z" fill="#1B1B1B"/>
</svg>
