<svg width="24" height="24" viewBox="0 0 24 24" fill="none" xmlns="http://www.w3.org/2000/svg">
<path d="M6.01175 13.8561C6.01429 13.9069 6.00647 13.9577 5.98877 14.0054C5.97107 14.0531 5.94385 14.0967 5.90877 14.1335C5.87369 14.1704 5.83149 14.1997 5.78472 14.2197C5.73796 14.2397 5.68761 14.25 5.63675 14.2499H1.5005C1.33122 14.2502 1.16683 14.1931 1.03407 14.0881C0.901303 13.9831 0.807971 13.8363 0.769249 13.6715C0.745137 13.5587 0.746249 13.4419 0.772504 13.3296C0.798759 13.2173 0.849509 13.1122 0.921124 13.0218C1.58282 12.1443 2.46077 11.4533 3.46925 11.0165C3.02649 10.6128 2.68691 10.1089 2.47894 9.54696C2.27098 8.98505 2.20068 8.38149 2.27395 7.78682C2.34721 7.19216 2.5619 6.6237 2.90003 6.12907C3.23817 5.63444 3.6899 5.22803 4.2174 4.94388C4.7449 4.65973 5.33281 4.50612 5.93188 4.49591C6.53096 4.48569 7.12376 4.61918 7.66063 4.88518C8.19751 5.15118 8.66284 5.54195 9.01764 6.02477C9.37244 6.50758 9.60638 7.06839 9.69987 7.66021C9.71195 7.7398 9.69769 7.82115 9.65927 7.89189C9.62086 7.96262 9.56039 8.01888 9.48706 8.05209C8.4468 8.533 7.56581 9.30144 6.94803 10.2667C6.33026 11.232 6.00148 12.3539 6.0005 13.4999C6.0005 13.6199 6.0005 13.738 6.01175 13.8561ZM23.0742 13.0208C22.4141 12.1443 21.5381 11.4538 20.5317 11.0165C20.9745 10.6128 21.3141 10.1089 21.5221 9.54696C21.73 8.98505 21.8003 8.38149 21.727 7.78682C21.6538 7.19216 21.4391 6.6237 21.101 6.12907C20.7628 5.63444 20.3111 5.22803 19.7836 4.94388C19.2561 4.65973 18.6682 4.50612 18.0691 4.49591C17.47 4.48569 16.8772 4.61918 16.3404 4.88518C15.8035 5.15118 15.3382 5.54195 14.9834 6.02477C14.6286 6.50758 14.3946 7.06839 14.3011 7.66021C14.289 7.7398 14.3033 7.82115 14.3417 7.89189C14.3801 7.96262 14.4406 8.01888 14.5139 8.05209C15.5542 8.533 16.4352 9.30144 17.053 10.2667C17.6707 11.232 17.9995 12.3539 18.0005 13.4999C18.0005 13.6199 18.0005 13.738 17.9892 13.8561C17.9867 13.9069 17.9945 13.9577 18.0122 14.0054C18.0299 14.0531 18.0571 14.0967 18.0922 14.1335C18.1273 14.1704 18.1695 14.1997 18.2163 14.2197C18.263 14.2397 18.3134 14.25 18.3642 14.2499H22.5005C22.6698 14.2502 22.8342 14.1931 22.9669 14.0881C23.0997 13.9831 23.193 13.8363 23.2317 13.6715C23.256 13.5585 23.2549 13.4415 23.2285 13.329C23.202 13.2165 23.151 13.1112 23.0789 13.0208H23.0742ZM14.7305 17.069C15.4773 16.4971 16.026 15.7055 16.2997 14.8056C16.5734 13.9057 16.5582 12.9427 16.2563 12.0518C15.9543 11.161 15.3808 10.3872 14.6164 9.83912C13.852 9.29106 12.935 8.99632 11.9944 8.99632C11.0538 8.99632 10.1368 9.29106 9.3724 9.83912C8.60796 10.3872 8.03448 11.161 7.73254 12.0518C7.43061 12.9427 7.41541 13.9057 7.68909 14.8056C7.96276 15.7055 8.51154 16.4971 9.25831 17.069C7.93319 17.6431 6.82668 18.6264 6.10081 19.8749C6.03498 19.9889 6.00032 20.1183 6.00033 20.2499C6.00034 20.3816 6.03501 20.511 6.10085 20.625C6.1667 20.739 6.2614 20.8337 6.37544 20.8995C6.48948 20.9653 6.61883 20.9999 6.7505 20.9999H17.2505C17.3822 20.9999 17.5115 20.9653 17.6256 20.8995C17.7396 20.8337 17.8343 20.739 17.9001 20.625C17.966 20.511 18.0007 20.3816 18.0007 20.2499C18.0007 20.1183 17.966 19.9889 17.9002 19.8749C17.1728 18.6256 16.0642 17.6422 14.7371 17.069H14.7305Z" fill="black"/>
</svg>
