<svg width="20" height="21" viewBox="0 0 20 21" fill="none" xmlns="http://www.w3.org/2000/svg">
<path d="M19.1202 14.0559C18.3065 12.6562 17.8743 10.6472 17.8743 8.25C17.8743 6.16142 17.0446 4.15838 15.5678 2.68153C14.0909 1.20469 12.0879 0.375 9.99929 0.375C7.91071 0.375 5.90768 1.20469 4.43083 2.68153C2.95398 4.15838 2.12429 6.16142 2.12429 8.25C2.12429 10.6481 1.69398 12.6562 0.880231 14.0559C0.714182 14.3414 0.626163 14.6656 0.625011 14.9958C0.62386 15.3261 0.709615 15.6509 0.873669 15.9375C1.03668 16.2243 1.27329 16.4624 1.55906 16.6272C1.84484 16.792 2.16942 16.8775 2.49929 16.875H5.89117C5.98419 17.9003 6.45724 18.8537 7.21738 19.548C7.97752 20.2423 8.9698 20.6273 9.99929 20.6273C11.0288 20.6273 12.0211 20.2423 12.7812 19.548C13.5413 18.8537 14.0144 17.9003 14.1074 16.875H17.4993C17.8287 16.877 18.1527 16.7913 18.4379 16.6265C18.7232 16.4617 18.9593 16.2239 19.1221 15.9375C19.2869 15.6513 19.3734 15.3267 19.3731 14.9965C19.3728 14.6662 19.2856 14.3418 19.1202 14.0559ZM9.99929 18.375C9.56705 18.3751 9.14805 18.2258 8.81321 17.9525C8.47836 17.6791 8.24824 17.2985 8.16179 16.875H11.8368C11.7503 17.2985 11.5202 17.6791 11.1854 17.9525C10.8505 18.2258 10.4315 18.3751 9.99929 18.375ZM3.12367 14.625C3.95336 12.9375 4.37429 10.7944 4.37429 8.25C4.37429 6.75816 4.96693 5.32742 6.02182 4.27252C7.07671 3.21763 8.50745 2.625 9.99929 2.625C11.4911 2.625 12.9219 3.21763 13.9768 4.27252C15.0317 5.32742 15.6243 6.75816 15.6243 8.25C15.6243 10.7934 16.0443 12.9375 16.874 14.625H3.12367Z" fill="#6F7886"/>
</svg>
