<svg width="24" height="24" viewBox="0 0 24 24" fill="none" xmlns="http://www.w3.org/2000/svg">
<path d="M13.9624 7.81726L13.9605 7.81542C13.8954 7.7505 13.8611 7.68107 13.8611 7.55556V3.11111C13.8611 2.98557 13.8954 2.91523 13.9614 2.84922C14.0262 2.78449 14.0959 2.75 14.2222 2.75H20.8889C21.0152 2.75 21.0849 2.78449 21.1497 2.84922C21.2157 2.91523 21.25 2.98557 21.25 3.11111V7.55556C21.25 7.68107 21.2157 7.7505 21.1506 7.81541L21.1488 7.81726C21.0838 7.8824 21.0144 7.91667 20.8889 7.91667H14.2222C14.0967 7.91667 14.0273 7.8824 13.9624 7.81726ZM2.85125 12.2617L2.84941 12.2599C2.78426 12.1949 2.75 12.1255 2.75 12V3.11111C2.75 2.98557 2.78432 2.91523 2.85033 2.84922C2.91506 2.78449 2.98477 2.75 3.11111 2.75H9.77778C9.90357 2.75 9.97413 2.78423 10.0397 2.84925C10.1047 2.9148 10.1389 2.98536 10.1389 3.11111V12C10.1389 12.1263 10.1044 12.1961 10.0397 12.2608C9.97366 12.3268 9.90332 12.3611 9.77778 12.3611H3.11111C2.9856 12.3611 2.91617 12.3268 2.85125 12.2617ZM13.9624 21.1506L13.9605 21.1488C13.8954 21.0838 13.8611 21.0144 13.8611 20.8889V12C13.8611 11.8745 13.8954 11.8041 13.9614 11.7381C14.0262 11.6734 14.0959 11.6389 14.2222 11.6389H20.8889C21.0152 11.6389 21.0849 11.6734 21.1497 11.7381C21.2157 11.8041 21.25 11.8745 21.25 12V20.8889C21.25 21.0144 21.2157 21.0838 21.1506 21.1487L21.1488 21.1506C21.0838 21.2157 21.0144 21.25 20.8889 21.25H14.2222C14.0967 21.25 14.0273 21.2157 13.9624 21.1506ZM2.85125 21.1506L2.84941 21.1487C2.78426 21.0838 2.75 21.0144 2.75 20.8889V16.4444C2.75 16.3189 2.78432 16.2486 2.85033 16.1826C2.91506 16.1178 2.98477 16.0833 3.11111 16.0833H9.77778C9.90355 16.0833 9.97411 16.1176 10.0397 16.1826C10.1047 16.2481 10.1389 16.3187 10.1389 16.4444V20.8889C10.1389 21.0152 10.1044 21.0849 10.0397 21.1497C9.97366 21.2157 9.90332 21.25 9.77778 21.25H3.11111C2.9856 21.25 2.91617 21.2157 2.85125 21.1506Z" stroke="#6F7886" stroke-width="1.5"/>
</svg>
