<svg width="24" height="24" viewBox="0 0 24 24" fill="none" xmlns="http://www.w3.org/2000/svg">
<path d="M21.1667 8.66667H17V4.5C17 4.27899 16.9122 4.06702 16.7559 3.91074C16.5996 3.75446 16.3877 3.66667 16.1667 3.66667H3.66667V2.83333C3.66667 2.61232 3.57887 2.40036 3.42259 2.24408C3.26631 2.0878 3.05435 2 2.83333 2C2.61232 2 2.40036 2.0878 2.24408 2.24408C2.0878 2.40036 2 2.61232 2 2.83333V21.1667C2 21.3877 2.0878 21.5996 2.24408 21.7559C2.40036 21.9122 2.61232 22 2.83333 22C3.05435 22 3.26631 21.9122 3.42259 21.7559C3.57887 21.5996 3.66667 21.3877 3.66667 21.1667V20.3333H12.8333C13.0543 20.3333 13.2663 20.2455 13.4226 20.0893C13.5789 19.933 13.6667 19.721 13.6667 19.5V15.3333H21.1667C21.3877 15.3333 21.5996 15.2455 21.7559 15.0893C21.9122 14.933 22 14.721 22 14.5V9.5C22 9.27899 21.9122 9.06702 21.7559 8.91074C21.5996 8.75446 21.3877 8.66667 21.1667 8.66667ZM15.3333 5.33333V8.66667H3.66667V5.33333H15.3333ZM12 18.6667H3.66667V15.3333H12V18.6667ZM20.3333 13.6667H3.66667V10.3333H20.3333V13.6667Z" fill="#6F7886"/>
</svg>
