<svg width="24" height="24" viewBox="0 0 24 24" fill="none" xmlns="http://www.w3.org/2000/svg">
<path d="M22.3906 10.7044V14.0378C22.3906 14.2588 22.3028 14.4707 22.1465 14.627C21.9903 14.7833 21.7783 14.8711 21.5573 14.8711H4.05729V16.5378H13.224C13.445 16.5378 13.6569 16.6256 13.8132 16.7818C13.9695 16.9381 14.0573 17.1501 14.0573 17.3711V19.8711C14.0573 20.0921 13.9695 20.3041 13.8132 20.4604C13.6569 20.6166 13.445 20.7044 13.224 20.7044H4.05729V21.5378C4.05729 21.7588 3.96949 21.9707 3.81321 22.127C3.65693 22.2833 3.44497 22.3711 3.22396 22.3711C3.00294 22.3711 2.79098 22.2833 2.6347 22.127C2.47842 21.9707 2.39062 21.7588 2.39062 21.5378V3.20443C2.39062 2.98341 2.47842 2.77145 2.6347 2.61517C2.79098 2.45889 3.00294 2.37109 3.22396 2.37109C3.44497 2.37109 3.65693 2.45889 3.81321 2.61517C3.96949 2.77145 4.05729 2.98341 4.05729 3.20443V4.03776H16.5573C16.7783 4.03776 16.9903 4.12556 17.1465 4.28184C17.3028 4.43812 17.3906 4.65008 17.3906 4.87109V7.37109C17.3906 7.59211 17.3028 7.80407 17.1465 7.96035C16.9903 8.11663 16.7783 8.20443 16.5573 8.20443H4.05729V9.87109H21.5573C21.7783 9.87109 21.9903 9.95889 22.1465 10.1152C22.3028 10.2715 22.3906 10.4834 22.3906 10.7044Z" fill="#1B1B1B"/>
</svg>
