<svg width="24" height="24" viewBox="0 0 24 24" fill="none" xmlns="http://www.w3.org/2000/svg">
<path d="M20.2923 7.86781L15.0423 2.61781C14.9726 2.54819 14.8899 2.49298 14.7989 2.45534C14.7078 2.41769 14.6102 2.39836 14.5117 2.39844H5.51172C5.11389 2.39844 4.73236 2.55647 4.45106 2.83778C4.16975 3.11908 4.01172 3.50061 4.01172 3.89844V20.3984C4.01172 20.7963 4.16975 21.1778 4.45106 21.4591C4.73236 21.7404 5.11389 21.8984 5.51172 21.8984H19.0117C19.4095 21.8984 19.7911 21.7404 20.0724 21.4591C20.3537 21.1778 20.5117 20.7963 20.5117 20.3984V8.39844C20.5118 8.29992 20.4925 8.20235 20.4548 8.1113C20.4172 8.02025 20.362 7.93752 20.2923 7.86781ZM15.2617 4.95875L17.9514 7.64844H15.2617V4.95875ZM19.0117 20.3984H5.51172V3.89844H13.7617V8.39844C13.7617 8.59735 13.8407 8.78812 13.9814 8.92877C14.122 9.06942 14.3128 9.14844 14.5117 9.14844H19.0117V20.3984Z" fill="#6F7886"/>
</svg>
