<svg width="36" height="23" viewBox="0 0 36 23" fill="none" xmlns="http://www.w3.org/2000/svg">
<path d="M8.89686 18.6924C8.27831 18.6924 7.65976 18.48 7.14725 18.0554C5.99851 17.0823 5.85713 15.3661 6.82913 14.2338L11.8306 8.28896C12.8026 7.13892 14.5168 6.99738 15.6479 7.97049C16.7966 8.9436 16.938 10.6598 15.966 11.7921L10.9646 17.7369C10.4344 18.3739 9.65679 18.71 8.87919 18.71L8.89686 18.6924Z" fill="#6EC9DE"/>
<path d="M2.71327 14.6944C2.09472 14.6944 1.47617 14.4821 0.963652 14.0575C-0.185085 13.0843 -0.326468 11.3681 0.64554 10.2358L8.45695 0.964741C9.42896 -0.185294 11.1432 -0.326837 12.2743 0.64627C13.423 1.61938 13.5644 3.33558 12.5924 4.46793L4.78099 13.739C4.25081 14.3759 3.4732 14.7121 2.69559 14.7121L2.71327 14.6944Z" fill="#D7E2EF"/>
<path d="M15.5961 22.0894C14.9775 22.0894 14.359 21.877 13.8465 21.4524C12.6977 20.4793 12.5563 18.7631 13.5284 17.6308L19.8376 10.129C21.5518 8.07661 24.5032 7.70506 26.677 9.22665L30.4943 4.67958C31.4663 3.52955 33.1806 3.38801 34.3117 4.36111C35.4604 5.33422 35.6018 7.05043 34.6298 8.18277L30.618 12.9421C28.9038 14.9945 25.9524 15.3661 23.7786 13.8445L17.6461 21.1162C17.1159 21.7532 16.3383 22.0894 15.5607 22.0894H15.5961Z" fill="#9BE8CB"/>
</svg>
