<svg width="24" height="24" viewBox="0 0 24 24" fill="none" xmlns="http://www.w3.org/2000/svg">
<path fill-rule="evenodd" clip-rule="evenodd" d="M15.0705 9.99021C15.0673 9.99349 15.0641 9.99675 15.0609 9.99998L10.0009 15.06L9.98536 15.0751L2.53043 22.53C2.38043 22.68 2.19043 22.75 2.00043 22.75C1.81043 22.75 1.62043 22.68 1.47043 22.53C1.18043 22.24 1.18043 21.76 1.47043 21.47L4.84386 18.0966C3.88073 17.2309 3.01203 16.191 2.26082 15C1.20082 13.35 1.20082 10.66 2.26082 9.00004C4.70082 5.18004 8.25082 2.98004 12.0008 2.98004C14.09 2.98004 16.1521 3.6654 17.9817 4.95904L21.4707 1.47C21.7607 1.18 22.2407 1.18 22.5307 1.47C22.8207 1.76 22.8207 2.24 22.5307 2.53L15.0705 9.99021ZM14.4854 8.45526C13.7605 7.94444 12.899 7.66998 12.0009 7.66998C9.6109 7.66998 7.6709 9.60998 7.6709 12C7.6709 12.898 7.94532 13.7595 8.45608 14.4844L5.90514 17.0353C5.02459 16.2442 4.22431 15.2875 3.52082 14.19C2.77082 13.02 2.77082 10.98 3.52082 9.81004C5.68082 6.42004 8.77082 4.48004 12.0008 4.48004C13.6955 4.48004 15.3819 5.01386 16.9039 6.03684L14.4854 8.45526ZM12.0009 9.16998C12.5009 9.16998 12.9809 9.29998 13.4009 9.53998L9.5409 13.4C9.3009 12.98 9.1709 12.5 9.1709 12C9.1709 10.44 10.4409 9.16998 12.0009 9.16998ZM12.0006 21.0201C10.6706 21.0201 9.37055 20.7501 8.12055 20.2201C7.74055 20.0601 7.56055 19.6201 7.72055 19.2401C7.88055 18.8601 8.32055 18.6801 8.70055 18.8401C9.76055 19.2901 10.8706 19.5201 11.9906 19.5201C15.2206 19.5201 18.3106 17.5801 20.4706 14.1901C21.2206 13.0201 21.2206 10.9801 20.4706 9.81006C20.1606 9.32006 19.8206 8.85006 19.4606 8.41006C19.2006 8.09006 19.2506 7.62006 19.5706 7.35006C19.8906 7.09006 20.3605 7.13006 20.6306 7.46006C21.0205 7.94006 21.4006 8.46006 21.7406 9.00006C22.8006 10.6501 22.8006 13.3401 21.7406 15.0001C19.3006 18.8201 15.7506 21.0201 12.0006 21.0201ZM11.9506 15.6599C12.0206 16.0199 12.3406 16.2699 12.6906 16.2699C12.7076 16.2699 12.7235 16.2688 12.739 16.2676C12.769 16.2654 12.7976 16.2633 12.8306 16.2699C14.5506 15.9499 15.9306 14.5799 16.2506 12.8499C16.3306 12.4399 16.0606 12.0499 15.6506 11.9699C15.2406 11.8999 14.8506 12.1599 14.7706 12.5699C14.5706 13.6699 13.6506 14.5899 12.5506 14.7899C12.1406 14.8599 11.8706 15.2499 11.9506 15.6599Z" fill="#818181"/>
</svg>
