<svg width="24" height="24" viewBox="0 0 24 24" fill="none" xmlns="http://www.w3.org/2000/svg">
<path d="M13.0045 15.7862C14.1802 15.054 15.0854 13.9587 15.5832 12.6661C16.081 11.3736 16.1443 9.95404 15.7635 8.6223C15.3827 7.29057 14.5785 6.11909 13.4726 5.2851C12.3667 4.45112 11.0193 4 9.63417 4C8.24906 4 6.90163 4.45112 5.79574 5.2851C4.68985 6.11909 3.88566 7.29057 3.50485 8.6223C3.12403 9.95404 3.18731 11.3736 3.68511 12.6661C4.18291 13.9587 5.08815 15.054 6.26386 15.7862C4.32792 16.42 2.58605 17.6041 1.18542 19.2709C1.1198 19.346 1.06979 19.4334 1.03833 19.528C1.00687 19.6225 0.994581 19.7225 1.00219 19.8219C1.00979 19.9213 1.03714 20.0182 1.08262 20.1069C1.12811 20.1956 1.19082 20.2743 1.2671 20.3385C1.34338 20.4027 1.43169 20.451 1.52686 20.4807C1.62204 20.5104 1.72217 20.5207 1.82141 20.5112C1.92065 20.5018 2.017 20.4726 2.10483 20.4254C2.19265 20.3782 2.2702 20.314 2.33292 20.2366C4.21542 17.9903 6.80855 16.7538 9.62949 16.7538C12.4504 16.7538 15.0435 17.9903 16.9298 20.2366C17.0578 20.389 17.2412 20.4843 17.4395 20.5015C17.6378 20.5187 17.8349 20.4565 17.9873 20.3284C18.1397 20.2004 18.235 20.017 18.2523 19.8187C18.2695 19.6204 18.2072 19.4234 18.0792 19.2709C16.6776 17.6041 14.9357 16.42 13.0045 15.7862ZM4.75449 10.3787C4.75449 9.41457 5.0404 8.47203 5.57607 7.67035C6.11174 6.86866 6.87312 6.24381 7.76391 5.87484C8.6547 5.50586 9.6349 5.40932 10.5806 5.59742C11.5262 5.78552 12.3949 6.24982 13.0766 6.9316C13.7584 7.61338 14.2227 8.48203 14.4108 9.42768C14.5989 10.3733 14.5024 11.3535 14.1334 12.2443C13.7644 13.1351 13.1396 13.8965 12.3379 14.4322C11.5362 14.9678 10.5937 15.2537 9.62949 15.2537C8.33701 15.2523 7.0979 14.7382 6.18399 13.8243C5.27007 12.9103 4.75598 11.6712 4.75449 10.3787ZM23.1529 14.4166L22.716 14.1644C22.7673 13.893 22.7673 13.6145 22.716 13.3431L23.1529 13.0909C23.2382 13.0417 23.313 12.9761 23.373 12.898C23.433 12.8198 23.477 12.7306 23.5025 12.6355C23.528 12.5403 23.5345 12.4411 23.5217 12.3434C23.5088 12.2458 23.4769 12.1516 23.4276 12.0662C23.3784 11.9809 23.3128 11.9061 23.2347 11.8462C23.1565 11.7862 23.0673 11.7422 22.9722 11.7167C22.877 11.6912 22.7778 11.6847 22.6801 11.6975C22.5824 11.7104 22.4882 11.7423 22.4029 11.7916L21.9651 12.0447C21.7556 11.8649 21.5147 11.7254 21.2545 11.6331V11.1287C21.2545 10.9298 21.1755 10.7391 21.0348 10.5984C20.8942 10.4578 20.7034 10.3787 20.5045 10.3787C20.3056 10.3787 20.1148 10.4578 19.9742 10.5984C19.8335 10.7391 19.7545 10.9298 19.7545 11.1287V11.6331C19.4943 11.7254 19.2534 11.8649 19.0439 12.0447L18.6061 11.7916C18.5207 11.7423 18.4265 11.7104 18.3289 11.6975C18.2312 11.6847 18.132 11.6912 18.0368 11.7167C17.9417 11.7422 17.8525 11.7862 17.7743 11.8462C17.6962 11.9061 17.6306 11.9809 17.5814 12.0662C17.5321 12.1516 17.5002 12.2458 17.4873 12.3434C17.4745 12.4411 17.481 12.5403 17.5065 12.6355C17.532 12.7306 17.576 12.8198 17.636 12.898C17.6959 12.9761 17.7707 13.0417 17.8561 13.0909L18.2929 13.3431C18.2417 13.6145 18.2417 13.893 18.2929 14.1644L17.8561 14.4166C17.7707 14.4658 17.6959 14.5314 17.636 14.6095C17.576 14.6877 17.532 14.7769 17.5065 14.872C17.481 14.9672 17.4745 15.0664 17.4873 15.1641C17.5002 15.2617 17.5321 15.3559 17.5814 15.4412C17.6306 15.5266 17.6962 15.6014 17.7743 15.6613C17.8525 15.7213 17.9417 15.7653 18.0368 15.7908C18.132 15.8163 18.2312 15.8228 18.3289 15.81C18.4265 15.7971 18.5207 15.7652 18.6061 15.7159L19.0439 15.4628C19.2534 15.6426 19.4943 15.7821 19.7545 15.8744V16.3788C19.7545 16.5777 19.8335 16.7684 19.9742 16.9091C20.1148 17.0497 20.3056 17.1288 20.5045 17.1288C20.7034 17.1288 20.8942 17.0497 21.0348 16.9091C21.1755 16.7684 21.2545 16.5777 21.2545 16.3788V15.8744C21.5147 15.7821 21.7556 15.6426 21.9651 15.4628L22.4029 15.7159C22.5168 15.782 22.6462 15.8167 22.7779 15.8162C22.9431 15.8163 23.1036 15.7619 23.2347 15.6613C23.3657 15.5608 23.4599 15.4199 23.5027 15.2603C23.5454 15.1008 23.5343 14.9316 23.4711 14.7791C23.4078 14.6265 23.296 14.4991 23.1529 14.4166ZM19.7545 13.7537C19.7545 13.6054 19.7985 13.4604 19.8809 13.3371C19.9633 13.2137 20.0804 13.1176 20.2175 13.0608C20.3545 13.0041 20.5053 12.9892 20.6508 13.0182C20.7963 13.0471 20.9299 13.1185 21.0348 13.2234C21.1397 13.3283 21.2111 13.4619 21.2401 13.6074C21.269 13.7529 21.2542 13.9037 21.1974 14.0408C21.1406 14.1778 21.0445 14.2949 20.9212 14.3774C20.7978 14.4598 20.6528 14.5037 20.5045 14.5037C20.3056 14.5037 20.1148 14.4247 19.9742 14.2841C19.8335 14.1434 19.7545 13.9527 19.7545 13.7537Z" fill="#6F7886"/>
</svg>
